<svg xmlns:xlink="http://www.w3.org/1999/xlink" width="5494" height="5614" viewBox="0 0 5494 5614" fill="none" xmlns="http://www.w3.org/2000/svg"><path opacity=".5" d="M5134.73 3946.02c-44.22 489.57-1391.4 1154.88-2007.46 1023.73-616.06-131.15-1802.35-1281.82-1715.71-1816.35 86.63-534.52 1590.06-956.61 2142.86-819.11 552.81 137.51 1624.54 1122.17 1580.31 1611.73z" fill="#607D8B" fill-opacity="0.12"></path><path d="M3897.07 3349.92c-353.17 337.39-2360.09 1092.15-2893.89 582.57-533.796-509.58-146.734-2480.36 447.6-2917.86 594.33-437.508 2647.89 33.35 2918.99 439.62 271.11 406.26-119.52 1558.28-472.7 1895.67z" fill="#1A73E8"></path><path opacity=".5" fill-rule="evenodd" clipRule="evenodd" d="M1887.06 4085.96c783.09-91.81 1772.02-508.68 2010.01-736.04 127.79-122.08 260.49-350.81 364.96-612.27-252.59-200.67-512.44-354.81-707.61-403.36-552.8-137.51-2056.23 284.59-2142.86 819.11-38.44 237.18 173.73 595.66 475.5 932.56z" fill="#185ABC"></path></svg>